<svg id="apple" xmlns="http://www.w3.org/2000/svg" width="26" height="33" viewBox="0 0 26 33">
  <path id="XMLID_229_" d="M1.342,4.29c-2.69,4.823-.98,12.142,1.995,16.58,1.485,2.219,2.988,4.21,5.047,4.21l.118,0a6.077,6.077,0,0,0,2.342-.645,6.247,6.247,0,0,1,2.774-.68,5.876,5.876,0,0,1,2.641.657,5.451,5.451,0,0,0,2.53.627c2.319-.045,3.743-2.194,5-4.09a18.4,18.4,0,0,0,2.19-4.636l.009-.029a.273.273,0,0,0-.139-.33l-.019-.008A6.845,6.845,0,0,1,21.8,9.653a7.1,7.1,0,0,1,3.233-5.911l.025-.016a.27.27,0,0,0,.114-.173.277.277,0,0,0-.04-.205A7.448,7.448,0,0,0,19.215.026,5.053,5.053,0,0,0,18.7,0a10.051,10.051,0,0,0-3.715.959,5.826,5.826,0,0,1-1.779.549A5.679,5.679,0,0,1,11.364.952,8.69,8.69,0,0,0,8.119.1H8.037A7.923,7.923,0,0,0,1.342,4.29Z" transform="translate(0 7.92)" fill="#fff"/>
  <path id="XMLID_230_" d="M6.213,0A6.721,6.721,0,0,0,1.671,2.516,7.307,7.307,0,0,0,.04,7.676a.256.256,0,0,0,.226.231c.105.009.212.013.319.013A5.687,5.687,0,0,0,4.871,5.546,7.73,7.73,0,0,0,6.468.238.255.255,0,0,0,6.213,0Z" transform="translate(13)" fill="#fff"/>
</svg>
