<svg id="Layer_1" data-name="Layer 1" xmlns="http://www.w3.org/2000/svg" viewBox="0 0 105 50"><defs><style>.cls-1{fill:#ef5336;}.cls-2{fill:#fff;}.cls-3{fill:#4859a6;}</style></defs><g id="Tashleeh_Pro_Logo" data-name="Tashleeh Pro Logo"><g id="Pro_Tag" data-name="Pro Tag"><polygon id="Tag" class="cls-1" points="97.16 47.85 35.95 47.85 38.8 31.3 100.01 31.3 97.16 47.85"/><g id="Pro"><path class="cls-2" d="M79.05,37.54c0,2.19-1.27,3.35-3.68,3.35H73.78L73.24,44H71.3l1.55-8.8h3.43C78.28,35.17,79.05,35.83,79.05,37.54Zm-2,.22c0-.69-.31-.93-1.2-.93H74.49l-.41,2.41h1.36C76.49,39.24,77.08,38.7,77.08,37.76Z"/><path class="cls-2" d="M84.84,40.54,86.15,44H84.06l-1.18-3.25H81.73L81.16,44H79.22l1.55-8.8h3.54c1.93,0,2.64.62,2.64,2.27A2.88,2.88,0,0,1,84.84,40.54ZM82,39.07h1.44c1,0,1.53-.51,1.53-1.39,0-.63-.27-.85-1.12-.85H82.41Z"/><path class="cls-2" d="M87.76,40.24l.33-2A3.39,3.39,0,0,1,91.83,35c1.92,0,3.37.81,3.37,2.87a5.93,5.93,0,0,1-.11,1l-.33,2c-.19,1.06-.56,3.26-3.74,3.26-1.94,0-3.35-.83-3.35-2.86A5.74,5.74,0,0,1,87.76,40.24Zm5.07.43.33-1.9a4.49,4.49,0,0,0,.07-.71c0-1-.52-1.37-1.42-1.37-1.44,0-1.66,1-1.79,1.79l-.32,1.91a3.54,3.54,0,0,0-.07.67,1.27,1.27,0,0,0,1.45,1.4C92.52,42.46,92.7,41.42,92.83,40.67Z"/></g></g><g id="Wordmark"><g id="Wordmark-2" data-name="Wordmark"><path class="cls-3" d="M93.58,20.2H82.43l1.19-6.92h-8.3l-1.2,6.92H71.29l1.19-6.92h-8.3L63,20.2H60.14l1.19-6.92H53L51.84,20.2H49l3.11-18H43.8L40.7,20.2H37.84L39,13.28H30.72L29.53,20.2H26.72L27,18.81c.92-5.34-2.68-9.69-8-9.69H3.72L2.29,17.43H17.51a1.16,1.16,0,0,1,1.15,1.36l-.24,1.41H1.81L.14,29.88c-.92,5.35,2.68,9.69,8,9.69h6.91l1.43-8.3H9.59A1.17,1.17,0,0,1,8.44,29.9l.25-1.4h91.76l2.62-15.22h-8.3Z"/><polygon class="cls-3" points="54.95 2.15 53.52 10.46 72.97 10.46 84.11 10.46 85.53 2.15 74.4 2.15 54.95 2.15"/><polygon class="cls-3" points="19.33 31.3 17.9 39.6 34.53 39.6 35.96 31.3 19.33 31.3"/><polygon class="cls-3" points="88.37 2.17 86.94 10.48 103.57 10.48 105 2.17 88.37 2.17"/></g></g></g></svg>